solid OpenSCAD_Model
  facet normal -1 0 0
    outer loop
      vertex -1.75 -3.25 -1
      vertex -1.75 3.25 1
      vertex -1.75 3.25 -1
    endloop
  endfacet
  facet normal -1 -0 0
    outer loop
      vertex -1.75 3.25 1
      vertex -1.75 -3.25 -1
      vertex -1.75 -3.25 1
    endloop
  endfacet
  facet normal -0 0 1
    outer loop
      vertex -1.5 -1.9 1
      vertex 1.5 -2.1 1
      vertex 1.5 -1.9 1
    endloop
  endfacet
  facet normal 0 0 1
    outer loop
      vertex 1.5 -2.1 1
      vertex -1.5 -1.9 1
      vertex -1.5 -2.1 1
    endloop
  endfacet
  facet normal -0 0 1
    outer loop
      vertex -1.5 -0.9 1
      vertex 1.5 -1.1 1
      vertex 1.5 -0.9 1
    endloop
  endfacet
  facet normal 0 0 1
    outer loop
      vertex 1.5 -1.1 1
      vertex -1.5 -0.9 1
      vertex -1.5 -1.1 1
    endloop
  endfacet
  facet normal -0 0 1
    outer loop
      vertex -1.5 0.0999994 1
      vertex 1.5 -0.0999994 1
      vertex 1.5 0.0999994 1
    endloop
  endfacet
  facet normal 0 0 1
    outer loop
      vertex 1.5 -0.0999994 1
      vertex -1.5 0.0999994 1
      vertex -1.5 -0.0999994 1
    endloop
  endfacet
  facet normal -0 0 1
    outer loop
      vertex -1.5 1.1 1
      vertex 1.5 0.9 1
      vertex 1.5 1.1 1
    endloop
  endfacet
  facet normal 0 0 1
    outer loop
      vertex 1.5 0.9 1
      vertex -1.5 1.1 1
      vertex -1.5 0.9 1
    endloop
  endfacet
  facet normal -0 0 1
    outer loop
      vertex -1.5 2.1 1
      vertex 1.5 1.9 1
      vertex 1.5 2.1 1
    endloop
  endfacet
  facet normal 0 0 1
    outer loop
      vertex 1.5 1.9 1
      vertex -1.5 2.1 1
      vertex -1.5 1.9 1
    endloop
  endfacet
  facet normal 0 0 1
    outer loop
      vertex 1.5 2.1 1
      vertex 1.75 3.25 1
      vertex 1.5 2.9 1
    endloop
  endfacet
  facet normal 0 0 1
    outer loop
      vertex 1.75 3.25 1
      vertex -1.5 2.9 1
      vertex 1.5 2.9 1
    endloop
  endfacet
  facet normal 0 0 1
    outer loop
      vertex -1.75 3.25 1
      vertex -1.5 2.1 1
      vertex -1.5 2.9 1
    endloop
  endfacet
  facet normal 0 0 1
    outer loop
      vertex -1.5 2.1 1
      vertex -1.75 3.25 1
      vertex -1.5 1.9 1
    endloop
  endfacet
  facet normal 0 0 1
    outer loop
      vertex -1.5 1.9 1
      vertex -1.75 3.25 1
      vertex -1.5 1.1 1
    endloop
  endfacet
  facet normal 0 0 1
    outer loop
      vertex -1.5 1.1 1
      vertex -1.75 3.25 1
      vertex -1.5 0.9 1
    endloop
  endfacet
  facet normal 0 0 1
    outer loop
      vertex -1.5 0.9 1
      vertex -1.75 3.25 1
      vertex -1.5 0.0999994 1
    endloop
  endfacet
  facet normal 0 0 1
    outer loop
      vertex -1.5 0.0999994 1
      vertex -1.75 3.25 1
      vertex -1.5 -0.0999994 1
    endloop
  endfacet
  facet normal 0 0 1
    outer loop
      vertex -1.75 -3.25 1
      vertex -1.5 -0.0999994 1
      vertex -1.75 3.25 1
    endloop
  endfacet
  facet normal 0 0 1
    outer loop
      vertex -1.5 -0.0999994 1
      vertex -1.75 -3.25 1
      vertex -1.5 -0.9 1
    endloop
  endfacet
  facet normal 0 0 1
    outer loop
      vertex -1.5 -0.9 1
      vertex -1.75 -3.25 1
      vertex -1.5 -1.1 1
    endloop
  endfacet
  facet normal 0 0 1
    outer loop
      vertex -1.5 -1.1 1
      vertex -1.75 -3.25 1
      vertex -1.5 -1.9 1
    endloop
  endfacet
  facet normal 0 0 1
    outer loop
      vertex -1.5 -1.9 1
      vertex -1.75 -3.25 1
      vertex -1.5 -2.1 1
    endloop
  endfacet
  facet normal -0 0 1
    outer loop
      vertex -1.75 3.25 1
      vertex -1.5 2.9 1
      vertex 1.75 3.25 1
    endloop
  endfacet
  facet normal 0 0 1
    outer loop
      vertex 1.5 1.9 1
      vertex 1.75 3.25 1
      vertex 1.5 2.1 1
    endloop
  endfacet
  facet normal 0 0 1
    outer loop
      vertex 1.5 1.1 1
      vertex 1.75 3.25 1
      vertex 1.5 1.9 1
    endloop
  endfacet
  facet normal 0 0 1
    outer loop
      vertex 1.5 0.9 1
      vertex 1.75 3.25 1
      vertex 1.5 1.1 1
    endloop
  endfacet
  facet normal 0 0 1
    outer loop
      vertex 1.5 0.0999994 1
      vertex 1.75 3.25 1
      vertex 1.5 0.9 1
    endloop
  endfacet
  facet normal 0 0 1
    outer loop
      vertex 1.75 3.25 1
      vertex 1.5 0.0999994 1
      vertex 1.75 -3.25 1
    endloop
  endfacet
  facet normal -0 0 1
    outer loop
      vertex 1.5 -0.0999994 1
      vertex 1.75 -3.25 1
      vertex 1.5 0.0999994 1
    endloop
  endfacet
  facet normal -0 0 1
    outer loop
      vertex 1.5 -0.9 1
      vertex 1.75 -3.25 1
      vertex 1.5 -0.0999994 1
    endloop
  endfacet
  facet normal -0 0 1
    outer loop
      vertex 1.5 -1.1 1
      vertex 1.75 -3.25 1
      vertex 1.5 -0.9 1
    endloop
  endfacet
  facet normal -0 0 1
    outer loop
      vertex 1.5 -1.9 1
      vertex 1.75 -3.25 1
      vertex 1.5 -1.1 1
    endloop
  endfacet
  facet normal -0 0 1
    outer loop
      vertex 1.5 -2.1 1
      vertex 1.75 -3.25 1
      vertex 1.5 -1.9 1
    endloop
  endfacet
  facet normal -0 0 1
    outer loop
      vertex 1.5 -2.9 1
      vertex 1.75 -3.25 1
      vertex 1.5 -2.1 1
    endloop
  endfacet
  facet normal -0 0 1
    outer loop
      vertex -1.5 -2.9 1
      vertex 1.75 -3.25 1
      vertex 1.5 -2.9 1
    endloop
  endfacet
  facet normal 0 0 1
    outer loop
      vertex -1.5 -2.9 1
      vertex -1.75 -3.25 1
      vertex 1.75 -3.25 1
    endloop
  endfacet
  facet normal 0 0 1
    outer loop
      vertex -1.5 -2.1 1
      vertex -1.75 -3.25 1
      vertex -1.5 -2.9 1
    endloop
  endfacet
  facet normal 1 -0 0
    outer loop
      vertex 1.75 -3.25 1
      vertex 1.75 3.25 -1
      vertex 1.75 3.25 1
    endloop
  endfacet
  facet normal 1 0 0
    outer loop
      vertex 1.75 3.25 -1
      vertex 1.75 -3.25 1
      vertex 1.75 -3.25 -1
    endloop
  endfacet
  facet normal 0 1 -0
    outer loop
      vertex 1.75 3.25 -1
      vertex -1.75 3.25 1
      vertex 1.75 3.25 1
    endloop
  endfacet
  facet normal 0 1 0
    outer loop
      vertex -1.75 3.25 1
      vertex 1.75 3.25 -1
      vertex -1.75 3.25 -1
    endloop
  endfacet
  facet normal 0 0 -1
    outer loop
      vertex -1.75 -3.25 -1
      vertex 1.75 3.25 -1
      vertex 1.75 -3.25 -1
    endloop
  endfacet
  facet normal -0 0 -1
    outer loop
      vertex 1.75 3.25 -1
      vertex -1.75 -3.25 -1
      vertex -1.75 3.25 -1
    endloop
  endfacet
  facet normal 0 -1 0
    outer loop
      vertex -1.75 -3.25 -1
      vertex 1.75 -3.25 1
      vertex -1.75 -3.25 1
    endloop
  endfacet
  facet normal 0 -1 -0
    outer loop
      vertex 1.75 -3.25 1
      vertex -1.75 -3.25 -1
      vertex 1.75 -3.25 -1
    endloop
  endfacet
  facet normal 1 -0 0
    outer loop
      vertex -1.5 2.1 1
      vertex -1.5 2.9 0.25
      vertex -1.5 2.9 1
    endloop
  endfacet
  facet normal 1 0 0
    outer loop
      vertex -1.5 2.9 0.25
      vertex -1.5 2.1 1
      vertex -1.5 2.1 0.25
    endloop
  endfacet
  facet normal 1 -0 0
    outer loop
      vertex -1.5 1.1 1
      vertex -1.5 1.9 0.25
      vertex -1.5 1.9 1
    endloop
  endfacet
  facet normal 1 0 0
    outer loop
      vertex -1.5 1.9 0.25
      vertex -1.5 1.1 1
      vertex -1.5 1.1 0.25
    endloop
  endfacet
  facet normal 1 -0 0
    outer loop
      vertex -1.5 0.0999994 1
      vertex -1.5 0.9 0.25
      vertex -1.5 0.9 1
    endloop
  endfacet
  facet normal 1 0 0
    outer loop
      vertex -1.5 0.9 0.25
      vertex -1.5 0.0999994 1
      vertex -1.5 0.0999994 0.25
    endloop
  endfacet
  facet normal 1 -0 0
    outer loop
      vertex -1.5 -0.9 1
      vertex -1.5 -0.0999994 0.25
      vertex -1.5 -0.0999994 1
    endloop
  endfacet
  facet normal 1 0 0
    outer loop
      vertex -1.5 -0.0999994 0.25
      vertex -1.5 -0.9 1
      vertex -1.5 -0.9 0.25
    endloop
  endfacet
  facet normal 1 -0 0
    outer loop
      vertex -1.5 -1.9 1
      vertex -1.5 -1.1 0.25
      vertex -1.5 -1.1 1
    endloop
  endfacet
  facet normal 1 0 0
    outer loop
      vertex -1.5 -1.1 0.25
      vertex -1.5 -1.9 1
      vertex -1.5 -1.9 0.25
    endloop
  endfacet
  facet normal 1 -0 0
    outer loop
      vertex -1.5 -2.9 1
      vertex -1.5 -2.1 0.25
      vertex -1.5 -2.1 1
    endloop
  endfacet
  facet normal 1 0 0
    outer loop
      vertex -1.5 -2.1 0.25
      vertex -1.5 -2.9 1
      vertex -1.5 -2.9 0.25
    endloop
  endfacet
  facet normal -1 0 0
    outer loop
      vertex 1.5 2.1 0.25
      vertex 1.5 2.9 1
      vertex 1.5 2.9 0.25
    endloop
  endfacet
  facet normal -1 -0 0
    outer loop
      vertex 1.5 2.9 1
      vertex 1.5 2.1 0.25
      vertex 1.5 2.1 1
    endloop
  endfacet
  facet normal -1 0 0
    outer loop
      vertex 1.5 1.1 0.25
      vertex 1.5 1.9 1
      vertex 1.5 1.9 0.25
    endloop
  endfacet
  facet normal -1 -0 0
    outer loop
      vertex 1.5 1.9 1
      vertex 1.5 1.1 0.25
      vertex 1.5 1.1 1
    endloop
  endfacet
  facet normal -1 0 0
    outer loop
      vertex 1.5 0.0999994 0.25
      vertex 1.5 0.9 1
      vertex 1.5 0.9 0.25
    endloop
  endfacet
  facet normal -1 -0 0
    outer loop
      vertex 1.5 0.9 1
      vertex 1.5 0.0999994 0.25
      vertex 1.5 0.0999994 1
    endloop
  endfacet
  facet normal -1 0 0
    outer loop
      vertex 1.5 -0.9 0.25
      vertex 1.5 -0.0999994 1
      vertex 1.5 -0.0999994 0.25
    endloop
  endfacet
  facet normal -1 -0 0
    outer loop
      vertex 1.5 -0.0999994 1
      vertex 1.5 -0.9 0.25
      vertex 1.5 -0.9 1
    endloop
  endfacet
  facet normal -1 0 0
    outer loop
      vertex 1.5 -1.9 0.25
      vertex 1.5 -1.1 1
      vertex 1.5 -1.1 0.25
    endloop
  endfacet
  facet normal -1 -0 0
    outer loop
      vertex 1.5 -1.1 1
      vertex 1.5 -1.9 0.25
      vertex 1.5 -1.9 1
    endloop
  endfacet
  facet normal -1 0 0
    outer loop
      vertex 1.5 -2.9 0.25
      vertex 1.5 -2.1 1
      vertex 1.5 -2.1 0.25
    endloop
  endfacet
  facet normal -1 -0 0
    outer loop
      vertex 1.5 -2.1 1
      vertex 1.5 -2.9 0.25
      vertex 1.5 -2.9 1
    endloop
  endfacet
  facet normal -0 0 1
    outer loop
      vertex -1.5 2.9 0.25
      vertex 1.5 2.1 0.25
      vertex 1.5 2.9 0.25
    endloop
  endfacet
  facet normal 0 0 1
    outer loop
      vertex 1.5 2.1 0.25
      vertex -1.5 2.9 0.25
      vertex -1.5 2.1 0.25
    endloop
  endfacet
  facet normal -0 0 1
    outer loop
      vertex -1.5 1.9 0.25
      vertex 1.5 1.1 0.25
      vertex 1.5 1.9 0.25
    endloop
  endfacet
  facet normal 0 0 1
    outer loop
      vertex 1.5 1.1 0.25
      vertex -1.5 1.9 0.25
      vertex -1.5 1.1 0.25
    endloop
  endfacet
  facet normal -0 0 1
    outer loop
      vertex -1.5 0.9 0.25
      vertex 1.5 0.0999994 0.25
      vertex 1.5 0.9 0.25
    endloop
  endfacet
  facet normal 0 0 1
    outer loop
      vertex 1.5 0.0999994 0.25
      vertex -1.5 0.9 0.25
      vertex -1.5 0.0999994 0.25
    endloop
  endfacet
  facet normal -0 0 1
    outer loop
      vertex -1.5 -0.0999994 0.25
      vertex 1.5 -0.9 0.25
      vertex 1.5 -0.0999994 0.25
    endloop
  endfacet
  facet normal 0 0 1
    outer loop
      vertex 1.5 -0.9 0.25
      vertex -1.5 -0.0999994 0.25
      vertex -1.5 -0.9 0.25
    endloop
  endfacet
  facet normal -0 0 1
    outer loop
      vertex -1.5 -1.1 0.25
      vertex 1.5 -1.9 0.25
      vertex 1.5 -1.1 0.25
    endloop
  endfacet
  facet normal 0 0 1
    outer loop
      vertex 1.5 -1.9 0.25
      vertex -1.5 -1.1 0.25
      vertex -1.5 -1.9 0.25
    endloop
  endfacet
  facet normal -0 0 1
    outer loop
      vertex -1.5 -2.1 0.25
      vertex 1.5 -2.9 0.25
      vertex 1.5 -2.1 0.25
    endloop
  endfacet
  facet normal 0 0 1
    outer loop
      vertex 1.5 -2.9 0.25
      vertex -1.5 -2.1 0.25
      vertex -1.5 -2.9 0.25
    endloop
  endfacet
  facet normal 0 1 -0
    outer loop
      vertex 1.5 -2.9 0.25
      vertex -1.5 -2.9 1
      vertex 1.5 -2.9 1
    endloop
  endfacet
  facet normal 0 1 0
    outer loop
      vertex -1.5 -2.9 1
      vertex 1.5 -2.9 0.25
      vertex -1.5 -2.9 0.25
    endloop
  endfacet
  facet normal 0 1 -0
    outer loop
      vertex 1.5 -1.9 0.25
      vertex -1.5 -1.9 1
      vertex 1.5 -1.9 1
    endloop
  endfacet
  facet normal 0 1 0
    outer loop
      vertex -1.5 -1.9 1
      vertex 1.5 -1.9 0.25
      vertex -1.5 -1.9 0.25
    endloop
  endfacet
  facet normal 0 -1 0
    outer loop
      vertex -1.5 -2.1 0.25
      vertex 1.5 -2.1 1
      vertex -1.5 -2.1 1
    endloop
  endfacet
  facet normal 0 -1 -0
    outer loop
      vertex 1.5 -2.1 1
      vertex -1.5 -2.1 0.25
      vertex 1.5 -2.1 0.25
    endloop
  endfacet
  facet normal 0 1 -0
    outer loop
      vertex 1.5 -0.9 0.25
      vertex -1.5 -0.9 1
      vertex 1.5 -0.9 1
    endloop
  endfacet
  facet normal 0 1 0
    outer loop
      vertex -1.5 -0.9 1
      vertex 1.5 -0.9 0.25
      vertex -1.5 -0.9 0.25
    endloop
  endfacet
  facet normal 0 -1 0
    outer loop
      vertex -1.5 -1.1 0.25
      vertex 1.5 -1.1 1
      vertex -1.5 -1.1 1
    endloop
  endfacet
  facet normal 0 -1 -0
    outer loop
      vertex 1.5 -1.1 1
      vertex -1.5 -1.1 0.25
      vertex 1.5 -1.1 0.25
    endloop
  endfacet
  facet normal 0 -1 0
    outer loop
      vertex -1.5 -0.0999994 0.25
      vertex 1.5 -0.0999994 1
      vertex -1.5 -0.0999994 1
    endloop
  endfacet
  facet normal 0 -1 -0
    outer loop
      vertex 1.5 -0.0999994 1
      vertex -1.5 -0.0999994 0.25
      vertex 1.5 -0.0999994 0.25
    endloop
  endfacet
  facet normal 0 1 -0
    outer loop
      vertex 1.5 0.0999994 0.25
      vertex -1.5 0.0999994 1
      vertex 1.5 0.0999994 1
    endloop
  endfacet
  facet normal 0 1 0
    outer loop
      vertex -1.5 0.0999994 1
      vertex 1.5 0.0999994 0.25
      vertex -1.5 0.0999994 0.25
    endloop
  endfacet
  facet normal 0 1 -0
    outer loop
      vertex 1.5 1.1 0.25
      vertex -1.5 1.1 1
      vertex 1.5 1.1 1
    endloop
  endfacet
  facet normal 0 1 0
    outer loop
      vertex -1.5 1.1 1
      vertex 1.5 1.1 0.25
      vertex -1.5 1.1 0.25
    endloop
  endfacet
  facet normal 0 -1 0
    outer loop
      vertex -1.5 0.9 0.25
      vertex 1.5 0.9 1
      vertex -1.5 0.9 1
    endloop
  endfacet
  facet normal 0 -1 -0
    outer loop
      vertex 1.5 0.9 1
      vertex -1.5 0.9 0.25
      vertex 1.5 0.9 0.25
    endloop
  endfacet
  facet normal 0 1 -0
    outer loop
      vertex 1.5 2.1 0.25
      vertex -1.5 2.1 1
      vertex 1.5 2.1 1
    endloop
  endfacet
  facet normal 0 1 0
    outer loop
      vertex -1.5 2.1 1
      vertex 1.5 2.1 0.25
      vertex -1.5 2.1 0.25
    endloop
  endfacet
  facet normal 0 -1 0
    outer loop
      vertex -1.5 1.9 0.25
      vertex 1.5 1.9 1
      vertex -1.5 1.9 1
    endloop
  endfacet
  facet normal 0 -1 -0
    outer loop
      vertex 1.5 1.9 1
      vertex -1.5 1.9 0.25
      vertex 1.5 1.9 0.25
    endloop
  endfacet
  facet normal 0 -1 0
    outer loop
      vertex -1.5 2.9 0.25
      vertex 1.5 2.9 1
      vertex -1.5 2.9 1
    endloop
  endfacet
  facet normal 0 -1 -0
    outer loop
      vertex 1.5 2.9 1
      vertex -1.5 2.9 0.25
      vertex 1.5 2.9 0.25
    endloop
  endfacet
endsolid OpenSCAD_Model
