solid OpenSCAD_Model
  facet normal 0 0 1
    outer loop
      vertex 1.75 5 3.025
      vertex 1.5 4.75 3.025
      vertex 1.75 -5 3.025
    endloop
  endfacet
  facet normal 0 0 1
    outer loop
      vertex 1.75 5 3.025
      vertex -1.5 4.75 3.025
      vertex 1.5 4.75 3.025
    endloop
  endfacet
  facet normal 0 0 1
    outer loop
      vertex -1.5 4.75 3.025
      vertex -1.75 5 3.025
      vertex -1.5 -4.75 3.025
    endloop
  endfacet
  facet normal -0 0 1
    outer loop
      vertex -1.75 5 3.025
      vertex -1.5 4.75 3.025
      vertex 1.75 5 3.025
    endloop
  endfacet
  facet normal -0 0 1
    outer loop
      vertex 1.5 -4.75 3.025
      vertex 1.75 -5 3.025
      vertex 1.5 4.75 3.025
    endloop
  endfacet
  facet normal -0 0 1
    outer loop
      vertex -1.5 -4.75 3.025
      vertex 1.75 -5 3.025
      vertex 1.5 -4.75 3.025
    endloop
  endfacet
  facet normal 0 0 1
    outer loop
      vertex -1.5 -4.75 3.025
      vertex -1.75 -5 3.025
      vertex 1.75 -5 3.025
    endloop
  endfacet
  facet normal 0 0 1
    outer loop
      vertex -1.75 -5 3.025
      vertex -1.5 -4.75 3.025
      vertex -1.75 5 3.025
    endloop
  endfacet
  facet normal 0 -1 0
    outer loop
      vertex -2 -7 0
      vertex 2 -7 0.5
      vertex -2 -7 0.5
    endloop
  endfacet
  facet normal 0 -1 -0
    outer loop
      vertex 2 -7 0.5
      vertex -2 -7 0
      vertex 2 -7 0
    endloop
  endfacet
  facet normal 0.894427 0.447214 0
    outer loop
      vertex 3 5 0.5
      vertex 2 7 0
      vertex 2 7 0.5
    endloop
  endfacet
  facet normal 0.894427 0.447214 0
    outer loop
      vertex 2 7 0
      vertex 3 5 0.5
      vertex 3 5 0
    endloop
  endfacet
  facet normal -1 0 0
    outer loop
      vertex -3 -5 0
      vertex -3 5 0.5
      vertex -3 5 0
    endloop
  endfacet
  facet normal -1 -0 0
    outer loop
      vertex -3 5 0.5
      vertex -3 -5 0
      vertex -3 -5 0.5
    endloop
  endfacet
  facet normal -0.894427 -0.447214 0
    outer loop
      vertex -2 -7 0
      vertex -3 -5 0.5
      vertex -3 -5 0
    endloop
  endfacet
  facet normal -0.894427 -0.447214 0
    outer loop
      vertex -3 -5 0.5
      vertex -2 -7 0
      vertex -2 -7 0.5
    endloop
  endfacet
  facet normal 0.896195 -0 0.443661
    outer loop
      vertex 1.75 -5 3.025
      vertex 3 5 0.5
      vertex 1.75 5 3.025
    endloop
  endfacet
  facet normal 0.896195 0 0.443661
    outer loop
      vertex 3 5 0.5
      vertex 1.75 -5 3.025
      vertex 3 -5 0.5
    endloop
  endfacet
  facet normal -0.894427 0.447214 0
    outer loop
      vertex -3 5 0
      vertex -2 7 0.5
      vertex -2 7 0
    endloop
  endfacet
  facet normal -0.894427 0.447214 0
    outer loop
      vertex -2 7 0.5
      vertex -3 5 0
      vertex -3 5 0.5
    endloop
  endfacet
  facet normal -0.817841 -0.40892 0.404872
    outer loop
      vertex -1.75 -5 3.025
      vertex -3 -5 0.5
      vertex -2 -7 0.5
    endloop
  endfacet
  facet normal 0.894427 -0.447214 0
    outer loop
      vertex 2 -7 0.5
      vertex 3 -5 0
      vertex 3 -5 0.5
    endloop
  endfacet
  facet normal 0.894427 -0.447214 0
    outer loop
      vertex 3 -5 0
      vertex 2 -7 0.5
      vertex 2 -7 0
    endloop
  endfacet
  facet normal 0.817841 -0.40892 0.404872
    outer loop
      vertex 3 -5 0.5
      vertex 1.75 -5 3.025
      vertex 2 -7 0.5
    endloop
  endfacet
  facet normal 1 -0 0
    outer loop
      vertex 3 -5 0.5
      vertex 3 5 0
      vertex 3 5 0.5
    endloop
  endfacet
  facet normal 1 0 0
    outer loop
      vertex 3 5 0
      vertex 3 -5 0.5
      vertex 3 -5 0
    endloop
  endfacet
  facet normal 0 1 -0
    outer loop
      vertex 2 7 0
      vertex -2 7 0.5
      vertex 2 7 0.5
    endloop
  endfacet
  facet normal 0 1 0
    outer loop
      vertex -2 7 0.5
      vertex 2 7 0
      vertex -2 7 0
    endloop
  endfacet
  facet normal 0.817841 0.40892 0.404872
    outer loop
      vertex 2 7 0.5
      vertex 1.75 5 3.025
      vertex 3 5 0.5
    endloop
  endfacet
  facet normal -0.817841 0.40892 0.404872
    outer loop
      vertex -2 7 0.5
      vertex -3 5 0.5
      vertex -1.75 5 3.025
    endloop
  endfacet
  facet normal 0 -0.783888 0.620902
    outer loop
      vertex -2 -7 0.5
      vertex 1.75 -5 3.025
      vertex -1.75 -5 3.025
    endloop
  endfacet
  facet normal 0 -0.783888 0.620902
    outer loop
      vertex 1.75 -5 3.025
      vertex -2 -7 0.5
      vertex 2 -7 0.5
    endloop
  endfacet
  facet normal 0 0.783888 0.620902
    outer loop
      vertex 2 7 0.5
      vertex -1.75 5 3.025
      vertex 1.75 5 3.025
    endloop
  endfacet
  facet normal 0 0.783888 0.620902
    outer loop
      vertex -1.75 5 3.025
      vertex 2 7 0.5
      vertex -2 7 0.5
    endloop
  endfacet
  facet normal -0.896195 0 0.443661
    outer loop
      vertex -3 -5 0.5
      vertex -1.75 5 3.025
      vertex -3 5 0.5
    endloop
  endfacet
  facet normal -0.896195 0 0.443661
    outer loop
      vertex -1.75 5 3.025
      vertex -3 -5 0.5
      vertex -1.75 -5 3.025
    endloop
  endfacet
  facet normal 0 0 -1
    outer loop
      vertex -3 -5 0
      vertex 3 -5 0
      vertex 2 -7 0
    endloop
  endfacet
  facet normal 0 0 -1
    outer loop
      vertex 3 -5 0
      vertex -3 -5 0
      vertex 3 5 0
    endloop
  endfacet
  facet normal 0 0 -1
    outer loop
      vertex -3 -5 0
      vertex 2 -7 0
      vertex -2 -7 0
    endloop
  endfacet
  facet normal 0 0 -1
    outer loop
      vertex -3 5 0
      vertex 3 5 0
      vertex -3 -5 0
    endloop
  endfacet
  facet normal 0 0 -1
    outer loop
      vertex 3 5 0
      vertex -3 5 0
      vertex 2 7 0
    endloop
  endfacet
  facet normal -0 0 -1
    outer loop
      vertex 2 7 0
      vertex -3 5 0
      vertex -2 7 0
    endloop
  endfacet
  facet normal -1 0 0
    outer loop
      vertex 1.5 -4.125 1.75
      vertex 1.5 -4.75 1.75
      vertex 1.5 -4.125 2.75
    endloop
  endfacet
  facet normal -1 0 0
    outer loop
      vertex 1.5 -3.125 1.75
      vertex 1.5 -3.875 1.75
      vertex 1.5 -3.125 2.75
    endloop
  endfacet
  facet normal -1 0 0
    outer loop
      vertex 1.5 -2.125 1.75
      vertex 1.5 -2.875 1.75
      vertex 1.5 -2.125 2.75
    endloop
  endfacet
  facet normal -1 0 0
    outer loop
      vertex 1.5 -1.125 1.75
      vertex 1.5 -1.875 1.75
      vertex 1.5 -1.125 2.75
    endloop
  endfacet
  facet normal -1 0 0
    outer loop
      vertex 1.5 -0.125 1.75
      vertex 1.5 -0.875 1.75
      vertex 1.5 -0.125 2.75
    endloop
  endfacet
  facet normal -1 0 0
    outer loop
      vertex 1.5 0.875 1.75
      vertex 1.5 0.125 1.75
      vertex 1.5 0.875 2.75
    endloop
  endfacet
  facet normal -1 0 0
    outer loop
      vertex 1.5 1.875 1.75
      vertex 1.5 1.125 1.75
      vertex 1.5 1.875 2.75
    endloop
  endfacet
  facet normal -1 0 0
    outer loop
      vertex 1.5 2.875 1.75
      vertex 1.5 2.125 1.75
      vertex 1.5 2.875 2.75
    endloop
  endfacet
  facet normal -1 0 0
    outer loop
      vertex 1.5 3.875 1.75
      vertex 1.5 3.125 1.75
      vertex 1.5 3.875 2.75
    endloop
  endfacet
  facet normal -1 0 0
    outer loop
      vertex 1.5 4.125 2.75
      vertex 1.5 4.75 1.75
      vertex 1.5 4.125 1.75
    endloop
  endfacet
  facet normal -1 0 0
    outer loop
      vertex 1.5 4.75 1.75
      vertex 1.5 4.125 2.75
      vertex 1.5 4.75 3.025
    endloop
  endfacet
  facet normal -1 0 0
    outer loop
      vertex 1.5 3.875 2.75
      vertex 1.5 4.75 3.025
      vertex 1.5 4.125 2.75
    endloop
  endfacet
  facet normal -1 0 0
    outer loop
      vertex 1.5 3.125 2.75
      vertex 1.5 3.875 2.75
      vertex 1.5 3.125 1.75
    endloop
  endfacet
  facet normal -1 0 0
    outer loop
      vertex 1.5 3.125 2.75
      vertex 1.5 4.75 3.025
      vertex 1.5 3.875 2.75
    endloop
  endfacet
  facet normal -1 0 0
    outer loop
      vertex 1.5 2.875 2.75
      vertex 1.5 4.75 3.025
      vertex 1.5 3.125 2.75
    endloop
  endfacet
  facet normal -1 0 0
    outer loop
      vertex 1.5 2.125 2.75
      vertex 1.5 2.875 2.75
      vertex 1.5 2.125 1.75
    endloop
  endfacet
  facet normal -1 0 0
    outer loop
      vertex 1.5 2.125 2.75
      vertex 1.5 4.75 3.025
      vertex 1.5 2.875 2.75
    endloop
  endfacet
  facet normal -1 0 0
    outer loop
      vertex 1.5 1.875 2.75
      vertex 1.5 4.75 3.025
      vertex 1.5 2.125 2.75
    endloop
  endfacet
  facet normal -1 0 0
    outer loop
      vertex 1.5 1.125 2.75
      vertex 1.5 1.875 2.75
      vertex 1.5 1.125 1.75
    endloop
  endfacet
  facet normal -1 0 0
    outer loop
      vertex 1.5 1.125 2.75
      vertex 1.5 4.75 3.025
      vertex 1.5 1.875 2.75
    endloop
  endfacet
  facet normal -1 0 0
    outer loop
      vertex 1.5 0.875 2.75
      vertex 1.5 4.75 3.025
      vertex 1.5 1.125 2.75
    endloop
  endfacet
  facet normal -1 0 0
    outer loop
      vertex 1.5 0.125 2.75
      vertex 1.5 0.875 2.75
      vertex 1.5 0.125 1.75
    endloop
  endfacet
  facet normal -1 0 0
    outer loop
      vertex 1.5 0.125 2.75
      vertex 1.5 4.75 3.025
      vertex 1.5 0.875 2.75
    endloop
  endfacet
  facet normal -1 0 0
    outer loop
      vertex 1.5 -0.125 2.75
      vertex 1.5 4.75 3.025
      vertex 1.5 0.125 2.75
    endloop
  endfacet
  facet normal -1 0 0
    outer loop
      vertex 1.5 -0.875 2.75
      vertex 1.5 -0.125 2.75
      vertex 1.5 -0.875 1.75
    endloop
  endfacet
  facet normal -1 0 0
    outer loop
      vertex 1.5 -4.75 3.025
      vertex 1.5 -0.125 2.75
      vertex 1.5 -0.875 2.75
    endloop
  endfacet
  facet normal -1 0 0
    outer loop
      vertex 1.5 -4.75 3.025
      vertex 1.5 -0.875 2.75
      vertex 1.5 -1.125 2.75
    endloop
  endfacet
  facet normal -1 0 0
    outer loop
      vertex 1.5 -1.875 2.75
      vertex 1.5 -1.125 2.75
      vertex 1.5 -1.875 1.75
    endloop
  endfacet
  facet normal -1 0 0
    outer loop
      vertex 1.5 -4.75 3.025
      vertex 1.5 -1.125 2.75
      vertex 1.5 -1.875 2.75
    endloop
  endfacet
  facet normal -1 0 0
    outer loop
      vertex 1.5 -4.75 3.025
      vertex 1.5 -1.875 2.75
      vertex 1.5 -2.125 2.75
    endloop
  endfacet
  facet normal -1 0 0
    outer loop
      vertex 1.5 -2.875 2.75
      vertex 1.5 -2.125 2.75
      vertex 1.5 -2.875 1.75
    endloop
  endfacet
  facet normal -1 0 0
    outer loop
      vertex 1.5 -4.75 3.025
      vertex 1.5 -2.125 2.75
      vertex 1.5 -2.875 2.75
    endloop
  endfacet
  facet normal -1 0 0
    outer loop
      vertex 1.5 -4.75 3.025
      vertex 1.5 -2.875 2.75
      vertex 1.5 -3.125 2.75
    endloop
  endfacet
  facet normal -1 0 0
    outer loop
      vertex 1.5 -3.875 2.75
      vertex 1.5 -3.125 2.75
      vertex 1.5 -3.875 1.75
    endloop
  endfacet
  facet normal -1 0 0
    outer loop
      vertex 1.5 -4.75 3.025
      vertex 1.5 -3.125 2.75
      vertex 1.5 -3.875 2.75
    endloop
  endfacet
  facet normal -1 0 0
    outer loop
      vertex 1.5 -4.75 3.025
      vertex 1.5 -3.875 2.75
      vertex 1.5 -4.125 2.75
    endloop
  endfacet
  facet normal -1 0 0
    outer loop
      vertex 1.5 -0.125 2.75
      vertex 1.5 -4.75 3.025
      vertex 1.5 4.75 3.025
    endloop
  endfacet
  facet normal -1 0 0
    outer loop
      vertex 1.5 -4.75 3.025
      vertex 1.5 -4.125 2.75
      vertex 1.5 -4.75 1.75
    endloop
  endfacet
  facet normal -0 0 1
    outer loop
      vertex -1.5 4.75 1.75
      vertex 1.5 4.125 1.75
      vertex 1.5 4.75 1.75
    endloop
  endfacet
  facet normal 0 0 1
    outer loop
      vertex 1.5 4.125 1.75
      vertex -1.5 4.75 1.75
      vertex -1.5 4.125 1.75
    endloop
  endfacet
  facet normal -0 0 1
    outer loop
      vertex -1.5 -4.125 1.75
      vertex 1.5 -4.75 1.75
      vertex 1.5 -4.125 1.75
    endloop
  endfacet
  facet normal 0 0 1
    outer loop
      vertex 1.5 -4.75 1.75
      vertex -1.5 -4.125 1.75
      vertex -1.5 -4.75 1.75
    endloop
  endfacet
  facet normal -0 0 1
    outer loop
      vertex -1.5 3.875 1.75
      vertex 1.5 3.125 1.75
      vertex 1.5 3.875 1.75
    endloop
  endfacet
  facet normal 0 0 1
    outer loop
      vertex 1.5 3.125 1.75
      vertex -1.5 3.875 1.75
      vertex -1.5 3.125 1.75
    endloop
  endfacet
  facet normal -0 0 1
    outer loop
      vertex -1.5 2.875 1.75
      vertex 1.5 2.125 1.75
      vertex 1.5 2.875 1.75
    endloop
  endfacet
  facet normal 0 0 1
    outer loop
      vertex 1.5 2.125 1.75
      vertex -1.5 2.875 1.75
      vertex -1.5 2.125 1.75
    endloop
  endfacet
  facet normal -0 0 1
    outer loop
      vertex -1.5 1.875 1.75
      vertex 1.5 1.125 1.75
      vertex 1.5 1.875 1.75
    endloop
  endfacet
  facet normal 0 0 1
    outer loop
      vertex 1.5 1.125 1.75
      vertex -1.5 1.875 1.75
      vertex -1.5 1.125 1.75
    endloop
  endfacet
  facet normal -0 0 1
    outer loop
      vertex -1.5 0.875 1.75
      vertex 1.5 0.125 1.75
      vertex 1.5 0.875 1.75
    endloop
  endfacet
  facet normal 0 0 1
    outer loop
      vertex 1.5 0.125 1.75
      vertex -1.5 0.875 1.75
      vertex -1.5 0.125 1.75
    endloop
  endfacet
  facet normal -0 0 1
    outer loop
      vertex -1.5 -0.125 1.75
      vertex 1.5 -0.875 1.75
      vertex 1.5 -0.125 1.75
    endloop
  endfacet
  facet normal 0 0 1
    outer loop
      vertex 1.5 -0.875 1.75
      vertex -1.5 -0.125 1.75
      vertex -1.5 -0.875 1.75
    endloop
  endfacet
  facet normal -0 0 1
    outer loop
      vertex -1.5 -1.125 1.75
      vertex 1.5 -1.875 1.75
      vertex 1.5 -1.125 1.75
    endloop
  endfacet
  facet normal 0 0 1
    outer loop
      vertex 1.5 -1.875 1.75
      vertex -1.5 -1.125 1.75
      vertex -1.5 -1.875 1.75
    endloop
  endfacet
  facet normal -0 0 1
    outer loop
      vertex -1.5 -2.125 1.75
      vertex 1.5 -2.875 1.75
      vertex 1.5 -2.125 1.75
    endloop
  endfacet
  facet normal 0 0 1
    outer loop
      vertex 1.5 -2.875 1.75
      vertex -1.5 -2.125 1.75
      vertex -1.5 -2.875 1.75
    endloop
  endfacet
  facet normal -0 0 1
    outer loop
      vertex -1.5 -3.125 1.75
      vertex 1.5 -3.875 1.75
      vertex 1.5 -3.125 1.75
    endloop
  endfacet
  facet normal 0 0 1
    outer loop
      vertex 1.5 -3.875 1.75
      vertex -1.5 -3.125 1.75
      vertex -1.5 -3.875 1.75
    endloop
  endfacet
  facet normal 1 0 0
    outer loop
      vertex -1.5 4.75 3.025
      vertex -1.5 4.125 2.75
      vertex -1.5 4.75 1.75
    endloop
  endfacet
  facet normal 1 0 0
    outer loop
      vertex -1.5 4.75 3.025
      vertex -1.5 3.875 2.75
      vertex -1.5 4.125 2.75
    endloop
  endfacet
  facet normal 1 0 0
    outer loop
      vertex -1.5 3.875 2.75
      vertex -1.5 3.125 2.75
      vertex -1.5 3.875 1.75
    endloop
  endfacet
  facet normal 1 0 0
    outer loop
      vertex -1.5 4.75 3.025
      vertex -1.5 3.125 2.75
      vertex -1.5 3.875 2.75
    endloop
  endfacet
  facet normal 1 0 0
    outer loop
      vertex -1.5 4.75 3.025
      vertex -1.5 2.875 2.75
      vertex -1.5 3.125 2.75
    endloop
  endfacet
  facet normal 1 0 0
    outer loop
      vertex -1.5 2.875 2.75
      vertex -1.5 2.125 2.75
      vertex -1.5 2.875 1.75
    endloop
  endfacet
  facet normal 1 0 0
    outer loop
      vertex -1.5 4.75 3.025
      vertex -1.5 2.125 2.75
      vertex -1.5 2.875 2.75
    endloop
  endfacet
  facet normal 1 0 0
    outer loop
      vertex -1.5 4.75 3.025
      vertex -1.5 1.875 2.75
      vertex -1.5 2.125 2.75
    endloop
  endfacet
  facet normal 1 0 0
    outer loop
      vertex -1.5 1.875 2.75
      vertex -1.5 1.125 2.75
      vertex -1.5 1.875 1.75
    endloop
  endfacet
  facet normal 1 0 0
    outer loop
      vertex -1.5 4.75 3.025
      vertex -1.5 1.125 2.75
      vertex -1.5 1.875 2.75
    endloop
  endfacet
  facet normal 1 0 0
    outer loop
      vertex -1.5 4.75 3.025
      vertex -1.5 0.875 2.75
      vertex -1.5 1.125 2.75
    endloop
  endfacet
  facet normal 1 0 0
    outer loop
      vertex -1.5 0.875 2.75
      vertex -1.5 0.125 2.75
      vertex -1.5 0.875 1.75
    endloop
  endfacet
  facet normal 1 0 0
    outer loop
      vertex -1.5 4.75 3.025
      vertex -1.5 0.125 2.75
      vertex -1.5 0.875 2.75
    endloop
  endfacet
  facet normal 1 0 0
    outer loop
      vertex -1.5 4.75 3.025
      vertex -1.5 -0.125 2.75
      vertex -1.5 0.125 2.75
    endloop
  endfacet
  facet normal 1 0 0
    outer loop
      vertex -1.5 -0.125 2.75
      vertex -1.5 -0.875 2.75
      vertex -1.5 -0.125 1.75
    endloop
  endfacet
  facet normal 1 -0 0
    outer loop
      vertex -1.5 -4.75 3.025
      vertex -1.5 -0.125 2.75
      vertex -1.5 4.75 3.025
    endloop
  endfacet
  facet normal 1 0 0
    outer loop
      vertex -1.5 -0.125 2.75
      vertex -1.5 -4.75 3.025
      vertex -1.5 -0.875 2.75
    endloop
  endfacet
  facet normal 1 0 0
    outer loop
      vertex -1.5 -1.125 2.75
      vertex -1.5 -1.875 2.75
      vertex -1.5 -1.125 1.75
    endloop
  endfacet
  facet normal 1 0 0
    outer loop
      vertex -1.5 -0.875 2.75
      vertex -1.5 -4.75 3.025
      vertex -1.5 -1.125 2.75
    endloop
  endfacet
  facet normal 1 0 0
    outer loop
      vertex -1.5 -1.125 2.75
      vertex -1.5 -4.75 3.025
      vertex -1.5 -1.875 2.75
    endloop
  endfacet
  facet normal 1 0 0
    outer loop
      vertex -1.5 -2.125 2.75
      vertex -1.5 -2.875 2.75
      vertex -1.5 -2.125 1.75
    endloop
  endfacet
  facet normal 1 0 0
    outer loop
      vertex -1.5 -1.875 2.75
      vertex -1.5 -4.75 3.025
      vertex -1.5 -2.125 2.75
    endloop
  endfacet
  facet normal 1 0 0
    outer loop
      vertex -1.5 -2.125 2.75
      vertex -1.5 -4.75 3.025
      vertex -1.5 -2.875 2.75
    endloop
  endfacet
  facet normal 1 0 0
    outer loop
      vertex -1.5 -3.125 2.75
      vertex -1.5 -3.875 2.75
      vertex -1.5 -3.125 1.75
    endloop
  endfacet
  facet normal 1 0 0
    outer loop
      vertex -1.5 -2.875 2.75
      vertex -1.5 -4.75 3.025
      vertex -1.5 -3.125 2.75
    endloop
  endfacet
  facet normal 1 0 0
    outer loop
      vertex -1.5 -3.125 2.75
      vertex -1.5 -4.75 3.025
      vertex -1.5 -3.875 2.75
    endloop
  endfacet
  facet normal 1 0 0
    outer loop
      vertex -1.5 -3.875 2.75
      vertex -1.5 -4.75 3.025
      vertex -1.5 -4.125 2.75
    endloop
  endfacet
  facet normal 1 0 0
    outer loop
      vertex -1.5 -4.75 1.75
      vertex -1.5 -4.125 2.75
      vertex -1.5 -4.75 3.025
    endloop
  endfacet
  facet normal 1 0 0
    outer loop
      vertex -1.5 -4.125 2.75
      vertex -1.5 -4.75 1.75
      vertex -1.5 -4.125 1.75
    endloop
  endfacet
  facet normal 1 0 0
    outer loop
      vertex -1.5 4.75 1.75
      vertex -1.5 4.125 2.75
      vertex -1.5 4.125 1.75
    endloop
  endfacet
  facet normal 1 0 0
    outer loop
      vertex -1.5 3.875 1.75
      vertex -1.5 3.125 2.75
      vertex -1.5 3.125 1.75
    endloop
  endfacet
  facet normal 1 0 0
    outer loop
      vertex -1.5 2.875 1.75
      vertex -1.5 2.125 2.75
      vertex -1.5 2.125 1.75
    endloop
  endfacet
  facet normal 1 0 0
    outer loop
      vertex -1.5 1.875 1.75
      vertex -1.5 1.125 2.75
      vertex -1.5 1.125 1.75
    endloop
  endfacet
  facet normal 1 0 0
    outer loop
      vertex -1.5 0.875 1.75
      vertex -1.5 0.125 2.75
      vertex -1.5 0.125 1.75
    endloop
  endfacet
  facet normal 1 0 0
    outer loop
      vertex -1.5 -0.125 1.75
      vertex -1.5 -0.875 2.75
      vertex -1.5 -0.875 1.75
    endloop
  endfacet
  facet normal 1 0 0
    outer loop
      vertex -1.5 -1.125 1.75
      vertex -1.5 -1.875 2.75
      vertex -1.5 -1.875 1.75
    endloop
  endfacet
  facet normal 1 0 0
    outer loop
      vertex -1.5 -2.125 1.75
      vertex -1.5 -2.875 2.75
      vertex -1.5 -2.875 1.75
    endloop
  endfacet
  facet normal 1 0 0
    outer loop
      vertex -1.5 -3.125 1.75
      vertex -1.5 -3.875 2.75
      vertex -1.5 -3.875 1.75
    endloop
  endfacet
  facet normal 0 -1 0
    outer loop
      vertex -1.5 4.75 1.75
      vertex 1.5 4.75 3.025
      vertex -1.5 4.75 3.025
    endloop
  endfacet
  facet normal 0 -1 -0
    outer loop
      vertex 1.5 4.75 3.025
      vertex -1.5 4.75 1.75
      vertex 1.5 4.75 1.75
    endloop
  endfacet
  facet normal 0 1 -0
    outer loop
      vertex 1.5 -4.75 1.75
      vertex -1.5 -4.75 3.025
      vertex 1.5 -4.75 3.025
    endloop
  endfacet
  facet normal 0 1 0
    outer loop
      vertex -1.5 -4.75 3.025
      vertex 1.5 -4.75 1.75
      vertex -1.5 -4.75 1.75
    endloop
  endfacet
  facet normal -0 0 1
    outer loop
      vertex -1.5 -3.875 2.75
      vertex 1.5 -4.125 2.75
      vertex 1.5 -3.875 2.75
    endloop
  endfacet
  facet normal 0 0 1
    outer loop
      vertex 1.5 -4.125 2.75
      vertex -1.5 -3.875 2.75
      vertex -1.5 -4.125 2.75
    endloop
  endfacet
  facet normal 0 1 -0
    outer loop
      vertex 1.5 -3.875 1.75
      vertex -1.5 -3.875 2.75
      vertex 1.5 -3.875 2.75
    endloop
  endfacet
  facet normal 0 1 0
    outer loop
      vertex -1.5 -3.875 2.75
      vertex 1.5 -3.875 1.75
      vertex -1.5 -3.875 1.75
    endloop
  endfacet
  facet normal 0 -1 0
    outer loop
      vertex -1.5 -4.125 1.75
      vertex 1.5 -4.125 2.75
      vertex -1.5 -4.125 2.75
    endloop
  endfacet
  facet normal 0 -1 -0
    outer loop
      vertex 1.5 -4.125 2.75
      vertex -1.5 -4.125 1.75
      vertex 1.5 -4.125 1.75
    endloop
  endfacet
  facet normal -0 0 1
    outer loop
      vertex -1.5 -2.875 2.75
      vertex 1.5 -3.125 2.75
      vertex 1.5 -2.875 2.75
    endloop
  endfacet
  facet normal 0 0 1
    outer loop
      vertex 1.5 -3.125 2.75
      vertex -1.5 -2.875 2.75
      vertex -1.5 -3.125 2.75
    endloop
  endfacet
  facet normal 0 1 -0
    outer loop
      vertex 1.5 -2.875 1.75
      vertex -1.5 -2.875 2.75
      vertex 1.5 -2.875 2.75
    endloop
  endfacet
  facet normal 0 1 0
    outer loop
      vertex -1.5 -2.875 2.75
      vertex 1.5 -2.875 1.75
      vertex -1.5 -2.875 1.75
    endloop
  endfacet
  facet normal 0 -1 0
    outer loop
      vertex -1.5 -3.125 1.75
      vertex 1.5 -3.125 2.75
      vertex -1.5 -3.125 2.75
    endloop
  endfacet
  facet normal 0 -1 -0
    outer loop
      vertex 1.5 -3.125 2.75
      vertex -1.5 -3.125 1.75
      vertex 1.5 -3.125 1.75
    endloop
  endfacet
  facet normal -0 0 1
    outer loop
      vertex -1.5 -1.875 2.75
      vertex 1.5 -2.125 2.75
      vertex 1.5 -1.875 2.75
    endloop
  endfacet
  facet normal 0 0 1
    outer loop
      vertex 1.5 -2.125 2.75
      vertex -1.5 -1.875 2.75
      vertex -1.5 -2.125 2.75
    endloop
  endfacet
  facet normal 0 1 -0
    outer loop
      vertex 1.5 -1.875 1.75
      vertex -1.5 -1.875 2.75
      vertex 1.5 -1.875 2.75
    endloop
  endfacet
  facet normal 0 1 0
    outer loop
      vertex -1.5 -1.875 2.75
      vertex 1.5 -1.875 1.75
      vertex -1.5 -1.875 1.75
    endloop
  endfacet
  facet normal 0 -1 0
    outer loop
      vertex -1.5 -2.125 1.75
      vertex 1.5 -2.125 2.75
      vertex -1.5 -2.125 2.75
    endloop
  endfacet
  facet normal 0 -1 -0
    outer loop
      vertex 1.5 -2.125 2.75
      vertex -1.5 -2.125 1.75
      vertex 1.5 -2.125 1.75
    endloop
  endfacet
  facet normal -0 0 1
    outer loop
      vertex -1.5 -0.875 2.75
      vertex 1.5 -1.125 2.75
      vertex 1.5 -0.875 2.75
    endloop
  endfacet
  facet normal 0 0 1
    outer loop
      vertex 1.5 -1.125 2.75
      vertex -1.5 -0.875 2.75
      vertex -1.5 -1.125 2.75
    endloop
  endfacet
  facet normal 0 1 -0
    outer loop
      vertex 1.5 -0.875 1.75
      vertex -1.5 -0.875 2.75
      vertex 1.5 -0.875 2.75
    endloop
  endfacet
  facet normal 0 1 0
    outer loop
      vertex -1.5 -0.875 2.75
      vertex 1.5 -0.875 1.75
      vertex -1.5 -0.875 1.75
    endloop
  endfacet
  facet normal 0 -1 0
    outer loop
      vertex -1.5 -1.125 1.75
      vertex 1.5 -1.125 2.75
      vertex -1.5 -1.125 2.75
    endloop
  endfacet
  facet normal 0 -1 -0
    outer loop
      vertex 1.5 -1.125 2.75
      vertex -1.5 -1.125 1.75
      vertex 1.5 -1.125 1.75
    endloop
  endfacet
  facet normal -0 0 1
    outer loop
      vertex -1.5 0.125 2.75
      vertex 1.5 -0.125 2.75
      vertex 1.5 0.125 2.75
    endloop
  endfacet
  facet normal 0 0 1
    outer loop
      vertex 1.5 -0.125 2.75
      vertex -1.5 0.125 2.75
      vertex -1.5 -0.125 2.75
    endloop
  endfacet
  facet normal 0 1 -0
    outer loop
      vertex 1.5 0.125 1.75
      vertex -1.5 0.125 2.75
      vertex 1.5 0.125 2.75
    endloop
  endfacet
  facet normal 0 1 0
    outer loop
      vertex -1.5 0.125 2.75
      vertex 1.5 0.125 1.75
      vertex -1.5 0.125 1.75
    endloop
  endfacet
  facet normal 0 -1 0
    outer loop
      vertex -1.5 -0.125 1.75
      vertex 1.5 -0.125 2.75
      vertex -1.5 -0.125 2.75
    endloop
  endfacet
  facet normal 0 -1 -0
    outer loop
      vertex 1.5 -0.125 2.75
      vertex -1.5 -0.125 1.75
      vertex 1.5 -0.125 1.75
    endloop
  endfacet
  facet normal -0 0 1
    outer loop
      vertex -1.5 1.125 2.75
      vertex 1.5 0.875 2.75
      vertex 1.5 1.125 2.75
    endloop
  endfacet
  facet normal 0 0 1
    outer loop
      vertex 1.5 0.875 2.75
      vertex -1.5 1.125 2.75
      vertex -1.5 0.875 2.75
    endloop
  endfacet
  facet normal 0 1 -0
    outer loop
      vertex 1.5 1.125 1.75
      vertex -1.5 1.125 2.75
      vertex 1.5 1.125 2.75
    endloop
  endfacet
  facet normal 0 1 0
    outer loop
      vertex -1.5 1.125 2.75
      vertex 1.5 1.125 1.75
      vertex -1.5 1.125 1.75
    endloop
  endfacet
  facet normal 0 -1 0
    outer loop
      vertex -1.5 0.875 1.75
      vertex 1.5 0.875 2.75
      vertex -1.5 0.875 2.75
    endloop
  endfacet
  facet normal 0 -1 -0
    outer loop
      vertex 1.5 0.875 2.75
      vertex -1.5 0.875 1.75
      vertex 1.5 0.875 1.75
    endloop
  endfacet
  facet normal -0 0 1
    outer loop
      vertex -1.5 2.125 2.75
      vertex 1.5 1.875 2.75
      vertex 1.5 2.125 2.75
    endloop
  endfacet
  facet normal 0 0 1
    outer loop
      vertex 1.5 1.875 2.75
      vertex -1.5 2.125 2.75
      vertex -1.5 1.875 2.75
    endloop
  endfacet
  facet normal 0 1 -0
    outer loop
      vertex 1.5 2.125 1.75
      vertex -1.5 2.125 2.75
      vertex 1.5 2.125 2.75
    endloop
  endfacet
  facet normal 0 1 0
    outer loop
      vertex -1.5 2.125 2.75
      vertex 1.5 2.125 1.75
      vertex -1.5 2.125 1.75
    endloop
  endfacet
  facet normal 0 -1 0
    outer loop
      vertex -1.5 1.875 1.75
      vertex 1.5 1.875 2.75
      vertex -1.5 1.875 2.75
    endloop
  endfacet
  facet normal 0 -1 -0
    outer loop
      vertex 1.5 1.875 2.75
      vertex -1.5 1.875 1.75
      vertex 1.5 1.875 1.75
    endloop
  endfacet
  facet normal -0 0 1
    outer loop
      vertex -1.5 3.125 2.75
      vertex 1.5 2.875 2.75
      vertex 1.5 3.125 2.75
    endloop
  endfacet
  facet normal 0 0 1
    outer loop
      vertex 1.5 2.875 2.75
      vertex -1.5 3.125 2.75
      vertex -1.5 2.875 2.75
    endloop
  endfacet
  facet normal 0 1 -0
    outer loop
      vertex 1.5 3.125 1.75
      vertex -1.5 3.125 2.75
      vertex 1.5 3.125 2.75
    endloop
  endfacet
  facet normal 0 1 0
    outer loop
      vertex -1.5 3.125 2.75
      vertex 1.5 3.125 1.75
      vertex -1.5 3.125 1.75
    endloop
  endfacet
  facet normal 0 -1 0
    outer loop
      vertex -1.5 2.875 1.75
      vertex 1.5 2.875 2.75
      vertex -1.5 2.875 2.75
    endloop
  endfacet
  facet normal 0 -1 -0
    outer loop
      vertex 1.5 2.875 2.75
      vertex -1.5 2.875 1.75
      vertex 1.5 2.875 1.75
    endloop
  endfacet
  facet normal -0 0 1
    outer loop
      vertex -1.5 4.125 2.75
      vertex 1.5 3.875 2.75
      vertex 1.5 4.125 2.75
    endloop
  endfacet
  facet normal 0 0 1
    outer loop
      vertex 1.5 3.875 2.75
      vertex -1.5 4.125 2.75
      vertex -1.5 3.875 2.75
    endloop
  endfacet
  facet normal 0 1 -0
    outer loop
      vertex 1.5 4.125 1.75
      vertex -1.5 4.125 2.75
      vertex 1.5 4.125 2.75
    endloop
  endfacet
  facet normal 0 1 0
    outer loop
      vertex -1.5 4.125 2.75
      vertex 1.5 4.125 1.75
      vertex -1.5 4.125 1.75
    endloop
  endfacet
  facet normal 0 -1 0
    outer loop
      vertex -1.5 3.875 1.75
      vertex 1.5 3.875 2.75
      vertex -1.5 3.875 2.75
    endloop
  endfacet
  facet normal 0 -1 -0
    outer loop
      vertex 1.5 3.875 2.75
      vertex -1.5 3.875 1.75
      vertex 1.5 3.875 1.75
    endloop
  endfacet
endsolid OpenSCAD_Model
